<?xml version="1.0" standalone="no"?>
<!DOCTYPE svg PUBLIC "-//W3C//DTD SVG 20010904//EN"
 "http://www.w3.org/TR/2001/REC-SVG-20010904/DTD/svg10.dtd">
<svg version="1.0" xmlns="http://www.w3.org/2000/svg"
 width="482.000000pt" height="482.000000pt" viewBox="0 0 482.000000 482.000000"
 preserveAspectRatio="xMidYMid meet">
<metadata>
Created by potrace 1.11, written by Peter Selinger 2001-2013
</metadata>
<g transform="translate(0.000000,482.000000) scale(0.100000,-0.100000)"
fill="#000000" stroke="none">
<path d="M784 4609 c-152 -26 -284 -136 -340 -284 -28 -75 -26 -230 5 -308 95
-240 374 -344 609 -226 114 57 216 199 228 319 3 29 7 57 10 62 3 4 -3 5 -13
1 -15 -5 -16 -4 -7 8 6 8 11 23 11 34 0 11 -5 26 -11 34 -8 12 -8 13 2 7 19
-12 6 36 -31 114 -81 171 -277 272 -463 239z"/>
<path d="M3622 3751 c-45 -22 -85 -47 -89 -57 -10 -28 11 -49 51 -49 32 0 37
-3 41 -30 4 -26 105 -1022 105 -1039 0 -3 -578 -6 -1285 -6 l-1285 0 0 438 c0
491 -1 496 -70 574 -21 24 -62 57 -91 73 -49 27 -63 30 -144 30 -74 0 -97 -4
-132 -23 -63 -33 -106 -74 -139 -134 l-29 -53 -3 -217 -3 -217 -158 -3 c-153
-3 -159 -4 -216 -33 -70 -36 -128 -105 -150 -179 -22 -73 -22 -650 0 -723 20
-68 89 -144 163 -180 48 -23 69 -28 132 -27 124 0 223 62 277 172 27 54 28 65
32 225 l3 167 29 0 29 0 0 -1130 0 -1130 1620 0 1620 0 0 1184 0 1185 -22 3
c-18 2 39 56 282 267 168 146 353 307 411 358 l106 92 13 -24 c18 -33 47 -41
71 -19 27 24 24 38 -29 134 -35 63 -53 86 -70 88 -48 7 -66 -37 -36 -84 12
-17 14 -28 7 -35 -47 -47 -858 -745 -860 -740 -1 3 -25 233 -53 511 -27 278
-52 517 -55 532 -4 24 1 30 36 48 36 19 40 24 37 53 -4 47 -43 47 -146 -2z"/>
</g>
</svg>
